<mxfile host="app.diagrams.net" modified="2021-07-22T17:07:15.726Z" agent="5.0 (Macintosh; Intel Mac OS X 10_15_7) AppleWebKit/537.36 (KHTML, like Gecko) Chrome/91.0.4472.114 Safari/537.36" etag="HebIE4kJ54lCkKz09H7G" version="14.9.1" type="github">
  <diagram id="6nszqm6pX4lKRhVBXlFI" name="第 1 页">
    <mxGraphModel dx="946" dy="589" grid="1" gridSize="10" guides="1" tooltips="1" connect="1" arrows="1" fold="1" page="1" pageScale="1" pageWidth="827" pageHeight="1169" math="0" shadow="0">
      <root>
        <mxCell id="0" />
        <mxCell id="1" parent="0" />
      </root>
    </mxGraphModel>
  </diagram>
</mxfile>
